<svg width="20" height="67" viewBox="0 0 20 67" fill="none" xmlns="http://www.w3.org/2000/svg">
<path d="M9.99431 31.6902L17.7275 39.4121L20 37.1396L9.99431 27.1339L0 37.1396L2.27248 39.4121L9.99431 31.6902Z" fill="#FFC263"/>
<path d="M9.99431 45.1781L17.7275 52.8999L20 50.6275L9.99431 40.6218L0 50.6275L2.27248 52.8999L9.99431 45.1781Z" fill="#FFC263"/>
<path d="M9.99431 58.8243L17.7275 66.5574L20 64.2736L9.99431 54.2793L0 64.2736L2.27248 66.5574L9.99431 58.8243Z" fill="#FFC263"/>
<path d="M9.99431 4.55628L17.7275 12.2781L20 10.0057L9.99431 0L0 10.0057L2.27248 12.2781L9.99431 4.55628Z" fill="#FFC263"/>
<path d="M9.99431 18.0442L17.7275 25.766L20 23.4936L9.99431 13.4879L0 23.4936L2.27248 25.766L9.99431 18.0442Z" fill="#FFC263"/>
</svg>
