<svg width="469" height="469" viewBox="0 0 469 469" fill="none" xmlns="http://www.w3.org/2000/svg">
<path opacity="0.5" d="M232.184 92.9999L375 235.816" stroke="#244579" stroke-width="2.1221" stroke-miterlimit="10"/>
<path opacity="0.5" d="M222.903 102.28L365.719 245.096" stroke="#244579" stroke-width="2.1221" stroke-miterlimit="10"/>
<path opacity="0.5" d="M213.623 111.561L356.439 254.377" stroke="#244579" stroke-width="2.1221" stroke-miterlimit="10"/>
<path opacity="0.5" d="M204.343 120.841L347.159 263.657" stroke="#244579" stroke-width="2.1221" stroke-miterlimit="10"/>
<path opacity="0.5" d="M195.062 130.122L337.878 272.938" stroke="#244579" stroke-width="2.1221" stroke-miterlimit="10"/>
<path opacity="0.5" d="M185.782 139.402L328.598 282.218" stroke="#244579" stroke-width="2.1221" stroke-miterlimit="10"/>
<path opacity="0.5" d="M176.501 148.682L319.317 291.498" stroke="#244579" stroke-width="2.1221" stroke-miterlimit="10"/>
<path opacity="0.5" d="M167.221 157.963L310.037 300.779" stroke="#244579" stroke-width="2.1221" stroke-miterlimit="10"/>
<path opacity="0.5" d="M157.941 167.243L300.757 310.059" stroke="#244579" stroke-width="2.1221" stroke-miterlimit="10"/>
<path opacity="0.5" d="M148.66 176.523L291.476 319.339" stroke="#244579" stroke-width="2.1221" stroke-miterlimit="10"/>
<path opacity="0.5" d="M139.38 185.804L282.196 328.62" stroke="#244579" stroke-width="2.1221" stroke-miterlimit="10"/>
<path opacity="0.5" d="M130.099 195.085L272.915 337.901" stroke="#244579" stroke-width="2.1221" stroke-miterlimit="10"/>
<path opacity="0.5" d="M120.819 204.365L263.635 347.159" stroke="#244579" stroke-width="2.1221" stroke-miterlimit="10"/>
<path opacity="0.5" d="M111.56 213.623L254.355 356.439" stroke="#244579" stroke-width="2.1221" stroke-miterlimit="10"/>
<path opacity="0.5" d="M102.28 222.903L245.074 365.719" stroke="#244579" stroke-width="2.1221" stroke-miterlimit="10"/>
<path opacity="0.5" d="M92.9999 232.184L235.816 375" stroke="#244579" stroke-width="2.1221" stroke-miterlimit="10"/>
<path d="M22 234.5L234.5 447L447 234.5L234.5 22L22 234.5Z" stroke="#244579" stroke-width="30" stroke-miterlimit="10"/>
</svg>
