<svg width="162" height="321" viewBox="0 0 162 321" fill="none" xmlns="http://www.w3.org/2000/svg">
<path d="M161.67 271.062C100.333 271.062 50.6084 221.337 50.6084 160C50.6084 98.6627 100.333 48.9385 161.67 48.9385" fill="#DA5077"/>
<path d="M161.67 283.825C93.2856 283.825 37.8447 228.384 37.8447 160" stroke="#DA5077" stroke-width="4" stroke-miterlimit="10"/>
<path d="M37.8447 160C37.8447 91.6157 93.2856 36.1748 161.67 36.1748" stroke="#DA5077" stroke-miterlimit="10"/>
<path d="M26.4114 160C26.4114 85.2998 86.9697 24.7415 161.67 24.7415" stroke="#DA5077" stroke-miterlimit="10"/>
<path d="M161.67 295.258C86.9697 295.258 26.4114 234.7 26.4114 160" stroke="#DA5077" stroke-width="4" stroke-miterlimit="10"/>
<path d="M26.4114 160C26.4114 85.2998 86.9697 24.7415 161.67 24.7415" stroke="#DA5077" stroke-miterlimit="10"/>
<path d="M161.67 295.258C86.9697 295.258 26.4114 234.7 26.4114 160" stroke="#DA5077" stroke-width="4" stroke-miterlimit="10"/>
<path d="M15.0261 160C15.0261 79.0079 80.6779 13.3561 161.67 13.3561" stroke="#DA5077" stroke-miterlimit="10"/>
<path d="M161.67 306.644C80.6779 306.644 15.0261 240.992 15.0261 160" stroke="#DA5077" stroke-width="4" stroke-miterlimit="10"/>
<path d="M2.66992 160C2.66992 72.1887 73.8586 1 161.67 1" stroke="#DA5077" stroke-miterlimit="10"/>
<path d="M161.67 319C73.8586 319 2.66992 247.811 2.66992 160" stroke="#DA5077" stroke-width="4" stroke-miterlimit="10"/>
</svg>
