<svg width="325" height="238" viewBox="0 0 325 238" fill="none" xmlns="http://www.w3.org/2000/svg">
<path d="M158.847 215.002C127.554 215.002 98.1322 203.132 76.0001 181.587L77.0598 180.555C122.158 224.472 195.528 224.472 240.626 180.555C262.473 159.281 274.505 130.996 274.505 100.918C274.505 70.8402 262.473 42.5479 240.626 21.2811L241.686 20.2493C263.818 41.8015 276 70.4523 276 100.925C276 131.399 263.811 160.049 241.686 181.602C219.562 203.139 190.14 215.002 158.847 215.002Z" fill="#244579"/>
<path d="M158.847 207.106C130.906 207.106 102.972 196.75 81.7041 176.04L82.7637 175.008C124.713 215.858 192.973 215.858 234.93 175.008C276.879 134.157 276.879 67.6786 234.93 26.8283L235.99 25.7964C278.525 67.2176 278.525 134.619 235.99 176.047C214.722 196.75 186.781 207.106 158.847 207.106Z" fill="#244579"/>
<path d="M158.847 199.304C131.86 199.304 106.489 189.066 87.4006 170.485L88.4602 169.453C107.263 187.764 132.258 197.841 158.839 197.841C185.428 197.841 210.423 187.756 229.218 169.453C248.021 151.143 258.37 126.803 258.37 100.918C258.37 75.0262 248.014 50.6857 229.218 32.3828L230.278 31.351C249.359 49.9319 259.873 74.6456 259.873 100.925C259.873 127.205 249.359 151.912 230.278 170.5C211.205 189.066 185.834 199.304 158.847 199.304Z" fill="#244579"/>
<path d="M158.847 191.408C135.039 191.408 111.231 182.582 93.1046 164.931L94.1642 163.899C129.831 198.631 187.863 198.631 223.53 163.899C259.196 129.166 259.196 72.6551 223.53 37.9227L224.589 36.8909C260.842 72.194 260.842 129.635 224.589 164.931C206.463 182.582 182.655 191.408 158.847 191.408Z" fill="#244579"/>
<path d="M158.847 183.563C137.106 183.563 115.357 175.506 98.801 159.384L99.8606 158.352C132.386 190.025 185.3 190.025 217.818 158.352C250.343 126.678 250.343 75.1506 217.818 43.4846L218.878 42.4528C251.982 74.6896 251.982 127.154 218.878 159.391C202.337 175.506 180.588 183.563 158.847 183.563Z" fill="#244579"/>
<path d="M158.847 175.718C139.165 175.718 119.483 168.421 104.505 153.836L105.565 152.804C134.941 181.411 182.745 181.411 212.122 152.804C226.355 138.944 234.194 120.516 234.194 100.918C234.194 81.3199 226.355 62.8925 212.122 49.0318L213.181 47.9999C227.7 62.1314 235.689 80.932 235.689 100.918C235.689 120.904 227.693 139.705 213.181 153.836C198.204 168.421 178.529 175.718 158.847 175.718Z" fill="#244579"/>
<path d="M158.847 167.873C141.231 167.873 123.616 161.345 110.201 148.282L111.261 147.25C137.496 172.798 180.182 172.798 206.418 147.25C232.653 121.702 232.653 80.1343 206.418 54.5864L207.477 53.5545C234.299 79.6733 234.299 122.17 207.477 148.289C194.078 161.337 176.462 167.873 158.847 167.873Z" fill="#244579"/>
<mask id="mask0" mask-type="alpha" maskUnits="userSpaceOnUse" x="1" y="1" width="323" height="236">
<path d="M32 123L20.5 149L0.999969 209.5C53.6666 219 159.6 237.7 162 236.5C164.4 235.3 244.667 210.333 284.5 198L324 46.5L226 1L184 43L113 123L32 123Z" fill="#C4C4C4"/>
</mask>
<g mask="url(#mask0)">
<path d="M159.406 -12.9551C190.699 -12.8737 220.09 -0.927025 242.166 20.6753L241.104 21.7045C196.12 -22.3294 122.75 -22.5202 77.5375 21.2791C55.6358 42.4963 43.5306 70.7498 43.4524 100.828C43.3741 130.906 55.3322 159.229 77.1233 180.553L76.061 181.582C53.9851 159.972 41.8776 131.29 41.9569 100.816C42.0361 70.3435 54.3001 41.7244 76.4806 20.2298C98.6611 -1.25016 128.114 -13.0365 159.406 -12.9551Z" fill="#244579"/>
<path d="M159.386 -5.05864C187.327 -4.98597 215.234 5.44193 236.448 26.2078L235.385 27.2369C193.542 -13.7224 125.283 -13.9 83.2195 26.8411C41.164 67.5823 40.9911 134.061 82.8341 175.02L81.7718 176.049C39.3441 134.518 39.5194 67.117 82.1626 25.7992C103.484 5.15131 131.452 -5.13129 159.386 -5.05864Z" fill="#244579"/>
<path d="M159.366 2.74258C186.352 2.81277 211.697 13.1169 230.737 31.7475L229.674 32.7766C210.919 14.4176 185.95 4.27537 159.369 4.20624C132.781 4.13709 107.759 14.1566 88.9166 32.4105C70.0662 50.6718 59.6546 74.9852 59.5872 100.87C59.5199 126.762 69.8124 151.129 88.5601 169.481L87.4978 170.51C68.4652 151.879 58.0159 127.138 58.0842 100.859C58.1526 74.5788 68.7305 49.8999 87.8596 31.3613C106.981 12.8446 132.379 2.6724 159.366 2.74258Z" fill="#244579"/>
<path d="M159.345 10.6389C183.153 10.7008 206.938 19.5885 225.018 37.2872L223.956 38.3163C188.38 3.49129 130.348 3.34036 94.591 37.9798C58.834 72.6193 58.687 129.13 94.2634 163.955L93.2011 164.985C57.04 129.587 57.1894 72.1466 93.5341 36.9452C111.706 19.3408 135.537 10.577 159.345 10.6389Z" fill="#244579"/>
<path d="M159.325 18.484C181.066 18.5405 202.794 26.6544 219.307 42.8195L218.245 43.8486C185.802 12.0908 132.888 11.9532 100.288 43.5419C67.6804 75.1305 67.5464 126.658 99.9894 158.408L98.9271 159.438C65.9069 127.115 66.0433 74.6505 99.2312 42.4999C115.814 26.4282 137.583 18.4275 159.325 18.484Z" fill="#244579"/>
<path d="M159.304 26.3292C178.986 26.3803 198.649 33.7278 213.589 48.3519L212.527 49.381C183.225 20.6978 135.421 20.5734 105.97 49.1039C91.7005 62.9276 83.8143 81.3344 83.7633 100.933C83.7123 120.531 91.5027 138.978 105.7 152.876L104.638 153.905C90.1555 139.736 82.2158 120.915 82.2678 100.929C82.3198 80.9427 90.3648 62.163 104.913 48.0693C119.929 33.523 139.622 26.278 159.304 26.3292Z" fill="#244579"/>
<path d="M159.284 34.1743C176.899 34.2201 194.498 40.7937 207.878 53.8916L206.816 54.9207C180.647 29.3046 137.961 29.1936 111.66 54.6732C85.3579 80.1529 85.2498 121.72 111.419 147.336L110.356 148.366C83.6029 122.177 83.7134 79.6803 110.603 53.6313C124.036 40.6178 141.668 34.1284 159.284 34.1743Z" fill="#244579"/>
</g>
<path d="M186.336 3.00006L182 7.21536V3.00006H186.336Z" fill="#244579"/>
<path d="M194.362 3.00006L182 15.0386V10.8233L190.034 3.00006H194.362Z" fill="#244579"/>
<path d="M218.396 3.00006L182 38.4349V34.2855L214.127 3.00006H218.396Z" fill="#244579"/>
<path d="M210.43 3.00006L182 30.6776V26.4623L206.101 3.00006H210.43Z" fill="#244579"/>
<path d="M202.396 3.00006L182 22.8617V18.6391L198.067 3.00006H202.396Z" fill="#244579"/>
</svg>
