<svg width="96" height="34" viewBox="0 0 96 34" fill="none" xmlns="http://www.w3.org/2000/svg">
<path d="M46.45 0C37.08 0 29.48 7.6 29.48 16.97C29.48 26.34 37.08 33.94 46.45 33.94C55.82 33.94 63.42 26.34 63.42 16.97C63.42 7.6 55.82 0 46.45 0ZM46.45 25.07C41.98 25.07 38.36 21.45 38.36 16.98C38.36 12.51 41.98 8.89 46.45 8.89C50.92 8.89 54.54 12.51 54.54 16.98C54.54 21.45 50.92 25.07 46.45 25.07Z" fill="#DA5077"/>
<path d="M85.51 7.12C80.07 7.12 75.66 11.53 75.66 16.97C75.66 22.41 80.07 26.82 85.51 26.82C90.95 26.82 95.36 22.41 95.36 16.97C95.36 11.53 90.95 7.12 85.51 7.12ZM85.51 19.63C84.04 19.63 82.85 18.44 82.85 16.97C82.85 15.5 84.04 14.31 85.51 14.31C86.98 14.31 88.17 15.5 88.17 16.97C88.17 18.44 86.98 19.63 85.51 19.63Z" fill="#244579"/>
<path d="M8.74005 8.24C3.91005 8.24 0 12.15 0 16.98C0 21.81 3.91005 25.72 8.74005 25.72C13.5701 25.72 17.48 21.81 17.48 16.98C17.48 12.15 13.5701 8.24 8.74005 8.24ZM8.74005 21.14C6.44005 21.14 4.57001 19.27 4.57001 16.97C4.57001 14.67 6.44005 12.8 8.74005 12.8C11.0401 12.8 12.91 14.67 12.91 16.97C12.91 19.27 11.0401 21.14 8.74005 21.14Z" fill="#FFC263"/>
</svg>
