<svg width="20" height="20" viewBox="0 0 20 20" fill="none" xmlns="http://www.w3.org/2000/svg">
<path d="M19.3922 16.44L12.9523 10L19.3922 3.56003C20.2026 2.74961 20.2026 1.41824 19.3922 0.607816C18.5818 -0.202605 17.2503 -0.202605 16.4399 0.607816L10 7.04778L3.56003 0.607816C2.74961 -0.202605 1.41824 -0.202605 0.607816 0.607816C-0.202605 1.41824 -0.202605 2.74961 0.607816 3.56003L7.04774 10L0.607816 16.44C-0.202605 17.2504 -0.202605 18.5818 0.607816 19.3922C1.41824 20.2026 2.74961 20.2026 3.56003 19.3922L10 12.9522L16.4399 19.3922C17.2503 20.2026 18.5818 20.2026 19.3922 19.3922C20.2026 18.5818 20.2026 17.2504 19.3922 16.44Z" fill="#FFC263"/>
</svg>
