<svg id="Express" xmlns="http://www.w3.org/2000/svg" viewBox="0 0 120 60"><defs><style>.cls-1{fill:#fbfbfd;}</style></defs><title>express_logo(darkmode)</title><g id="original-wordmark"><path id="path4" class="cls-1" d="M37.22823,43.3895V17.13584h1.42514v4.13a5.39957,5.39957,0,0,0,.46535-.58169,7.05785,7.05785,0,0,1,6.43738-3.99428c3.24777-.09695,5.88477,1.10521,7.436,3.99428a12.836,12.836,0,0,1,.31023,11.76955c-1.44453,3.23808-5.01224,4.84743-8.832,4.256a7.1451,7.1451,0,0,1-5.70057-3.7616V43.3895Zm1.42514-16.966c.126,1.27972.17451,2.191.31993,3.083.5623,3.50954,2.637,5.59393,5.89447,5.972a6.69914,6.69914,0,0,0,7.35839-4.256,11.41084,11.41084,0,0,0-.25206-9.38461,6.56342,6.56342,0,0,0-6.91243-3.81977,6.38891,6.38891,0,0,0-5.71027,4.72139A32.38042,32.38042,0,0,0,38.65337,26.42351Z"/><path id="path6" class="cls-1" d="M83.64719,29.99121a7.67832,7.67832,0,0,1-7.50381,6.7864c-5.972.30054-8.77384-3.66465-9.21981-8.24062a13.20443,13.20443,0,0,1,1.16338-7.27114,8.11459,8.11459,0,0,1,8.44422-4.52749,7.75588,7.75588,0,0,1,6.88334,5.90416,39.83436,39.83436,0,0,1,.66895,4.36268h-15.696c-.29085,4.1494,1.939,7.48442,5.09949,8.2891,3.93611.96949,7.30022-.73681,8.52178-4.479C82.28021,29.85549,82.77465,29.71976,83.64719,29.99121ZM68.38748,25.677H82.41593c-.08725-4.42085-2.84059-7.62015-6.57311-7.66863C71.61587,17.94051,68.57169,21.02348,68.38748,25.677Z"/><path id="path8" class="cls-1" d="M86.53625,30.08816h1.37667A5.51638,5.51638,0,0,0,91.151,34.83864a8.4636,8.4636,0,0,0,7.3487-.19389,3.30594,3.30594,0,0,0,1.939-3.24777,2.99571,2.99571,0,0,0-2.01653-2.99571c-1.51239-.5623-3.12174-.87254-4.66322-1.367a34.17428,34.17428,0,0,1-4.6923-1.716c-2.48188-1.21186-2.637-5.93325.17451-7.42626a9.89845,9.89845,0,0,1,9.46218-.14542,4.98315,4.98315,0,0,1,2.52066,5.0801h-1.18277c0-.05817-.10664-.10664-.10664-.16481-.14542-3.7713-3.30595-4.93468-6.69914-4.60505a8.89014,8.89014,0,0,0-2.90846.88223A2.90845,2.90845,0,0,0,88.64,21.84754a2.90845,2.90845,0,0,0,1.939,2.73395c1.493.54291,3.05388.89192,4.58567,1.3185,1.23124.33932,2.511.5623,3.70343.96949a4.37237,4.37237,0,0,1,3.0054,3.94581,4.66323,4.66323,0,0,1-2.511,4.84743c-3.23808,1.83233-8.57025,1.34758-10.94549-.96949A6.46646,6.46646,0,0,1,86.53625,30.08816Z"/><path id="path10" class="cls-1" d="M119.32424,22.82672h-1.28942a3.197,3.197,0,0,0-.08725-.475,4.21726,4.21726,0,0,0-3.432-4.05245,8.46361,8.46361,0,0,0-5.43881.26176,3.306,3.306,0,0,0-2.39463,3.15083,3.04418,3.04418,0,0,0,2.32677,3.06357c1.939.60108,3.92642.96949,5.89447,1.5124a16.48153,16.48153,0,0,1,1.8808.572,4.84743,4.84743,0,0,1,.26176,9.02591,10.79039,10.79039,0,0,1-8.72537.08725,6.04959,6.04959,0,0,1-3.64527-5.87508h1.26033a7.06755,7.06755,0,0,0,10.76128,4.49841,3.46105,3.46105,0,0,0,1.86141-3.23808,2.99572,2.99572,0,0,0-2.04561-2.97632c-1.51239-.5623-3.12174-.86284-4.66322-1.35728a34.34914,34.34914,0,0,1-4.7214-1.6966c-2.42371-1.19247-2.61761-5.87508.14542-7.36809a9.76271,9.76271,0,0,1,9.61729-.10664A5.07042,5.07042,0,0,1,119.32424,22.82672Z"/><path id="path12" class="cls-1" d="M34.87238,36.30257a2.22012,2.22012,0,0,1-2.75334-1.047C30.53878,32.89,28.79371,30.63108,27.1165,28.3237l-.72711-.96949c-1.99714,2.67578-3.99428,5.24492-5.81691,7.911a2.13286,2.13286,0,0,1-2.61761,1.02765L25.449,26.23931l-6.9706-9.08408a2.31707,2.31707,0,0,1,2.763.96949c1.619,2.36554,3.41259,4.62444,5.19644,7.01907,1.79355-2.37524,3.5677-4.64383,5.22553-6.99a2.08439,2.08439,0,0,1,2.59822-.96949l-2.70486,3.5871c-1.21186,1.59965-2.40432,3.209-3.66465,4.76987a.96948.96948,0,0,0,0,1.44453C30.20916,30.05909,32.50684,33.142,34.87238,36.30257Z"/><path id="path14" class="cls-1" d="M66.69088,17.05828v1.35728A7.02877,7.02877,0,0,0,59.20646,25.677V36.34135H57.8201V17.13584h1.35728V21.072C60.85459,18.20228,63.44311,17.13584,66.69088,17.05828Z"/><path id="path16" class="cls-1" d="M0,26.11327c.20359-.96949.32962-2.02622.61078-3.0151C2.288,17.13584,9.12286,14.654,13.82486,18.3477c2.75334,2.162,3.44167,5.22552,3.30594,8.67689H1.619c-.25207,6.16593,4.19787,9.88875,9.88875,7.98856a5.90417,5.90417,0,0,0,3.75191-4.17848c.30054-.96949.78528-1.1343,1.70629-.85315a7.87221,7.87221,0,0,1-3.7616,5.749A9.11315,9.11315,0,0,1,2.58853,34.37328,9.54943,9.54943,0,0,1,.20359,28.76966a4.64476,4.64476,0,0,0-.1939-.96949Q0,26.93734,0,26.11327Zm1.63843-.41688H15.66688c-.08725-4.46933-2.90846-7.63954-6.67006-7.66863C4.80865,17.9696,1.81294,21.072,1.62873,25.677Z"/></g></svg>