<svg id="Layer_1" data-name="Layer 1" xmlns="http://www.w3.org/2000/svg" viewBox="0 0 335.29001 377.20108"><defs><style>.cls-1{fill:#e34e26;}.cls-2{fill:#ef662a;}.cls-3{fill:#fff;}.cls-4{fill:#ebebeb;}</style></defs><title>html5_logo</title><g id="Guides_to_delete" data-name="Guides to delete"><polygon class="cls-1" points="30.527 339.478 0 0 335.29 0 304.726 339.505 167.563 377.201 30.527 339.478"/><polygon class="cls-2" points="167.645 27.749 167.645 348.365 278.557 317.885 304.689 27.749 167.645 27.749"/><polygon class="cls-3" points="62.459 69.389 73.78 195.3 219.344 195.3 214.459 249.305 167.591 261.867 120.811 249.323 117.683 214.646 75.527 214.646 81.555 281.492 167.581 305.179 253.715 281.492 265.262 153.668 112.191 153.668 108.348 111.03 268.94 111.03 269.069 111.03 272.831 69.389 62.459 69.389"/><polygon class="cls-4" points="167.645 69.389 62.459 69.389 73.78 195.3 167.645 195.3 167.645 153.668 112.191 153.668 108.348 111.03 167.645 111.03 167.645 69.389"/><polygon class="cls-4" points="167.645 261.849 167.591 261.867 120.811 249.323 117.683 214.646 75.527 214.646 81.555 281.492 167.581 305.179 167.645 305.161 167.645 261.849"/></g></svg>