<svg width="126" height="126" viewBox="0 0 126 126" fill="none" xmlns="http://www.w3.org/2000/svg">
<path d="M16.6244 20.0618C15.1099 21.6949 16.7139 23.0245 18.2888 21.4496L21.4648 18.2736C23.0397 16.6987 21.713 15.0985 20.0767 16.6095L16.6244 20.0618Z" fill="#244579"/>
<path d="M2.11206 46.3714C1.80977 47.4751 3.12929 48.1958 3.93846 47.3866L47.4059 3.91921C48.2137 3.11136 47.4962 1.80508 46.3921 2.09846C46.1966 2.15041 46.0195 2.25333 45.8765 2.39637L2.40702 45.8658C2.26665 46.0062 2.1645 46.18 2.11206 46.3714Z" fill="#244579"/>
<path d="M0 62.4968C0 62.6444 0.178482 62.7184 0.282867 62.614L62.6139 0.282832C62.7183 0.178458 62.6444 0 62.4968 0C62.1196 0 61.7424 0.0051594 61.3652 0.0133257C60.3499 0.0353064 59.3858 0.458814 58.6677 1.17689L1.17686 58.6677C0.458789 59.3858 0.0351107 60.3499 0.0131811 61.3652C0.0050982 61.7394 0 62.1156 0 62.4968Z" fill="#244579"/>
<path d="M0.644636 71.3998C0.761162 72.2989 1.84923 72.6343 2.49028 71.9933L72.032 2.45149C72.6624 1.82112 72.3158 0.739098 71.4339 0.609279C71.0947 0.559364 70.7557 0.675668 70.5133 0.918039L0.962555 70.4687C0.719526 70.7117 0.600459 71.059 0.644636 71.3998Z" fill="#244579"/>
<path d="M2.80516 81.0253C3.03982 81.8151 4.0264 82.0438 4.60899 81.4612L81.4899 4.58032C82.0661 4.00413 81.8359 3.0299 81.0577 2.78821C80.6673 2.66697 80.2442 2.77371 79.9552 3.06276L3.08551 79.9324C2.79966 80.2183 2.69002 80.6378 2.80516 81.0253Z" fill="#244579"/>
<path d="M6.12669 89.5018C6.45067 90.1786 7.34058 90.3161 7.8711 89.7856L89.8047 7.85195C90.3364 7.32027 90.1932 6.41982 89.5143 6.09669C89.102 5.90048 88.6127 5.9917 88.2898 6.31452L6.34424 88.2455C6.01351 88.5762 5.92474 89.08 6.12669 89.5018Z" fill="#244579"/>
<path d="M10.394 97.0057C10.7705 97.579 11.5759 97.6527 12.0609 97.1677L97.1884 12.0402C97.6703 11.5583 97.5937 10.754 97.0286 10.373C96.6006 10.0844 96.0317 10.1447 95.6667 10.5097L10.5363 95.6401C10.1721 96.0043 10.1114 96.5752 10.394 97.0057Z" fill="#244579"/>
<path d="M15.5032 103.698C15.9171 104.164 16.6366 104.179 17.0774 103.738L103.746 17.069C104.191 16.6247 104.173 15.8969 103.698 15.4849C103.267 15.1099 102.621 15.1417 102.217 15.5461L15.5517 102.211C15.1458 102.617 15.122 103.269 15.5032 103.698Z" fill="#244579"/>
<path d="M21.3989 109.583C21.8308 109.958 22.4759 109.926 22.8803 109.522L109.536 22.8656C109.941 22.4611 109.973 21.8161 109.598 21.3842C109.186 20.9096 108.458 20.8919 108.013 21.3362L21.351 107.999C20.9067 108.443 20.9244 109.171 21.3989 109.583Z" fill="#244579"/>
<path d="M28.0994 114.685C28.5265 114.967 29.089 114.9 29.4508 114.538L114.552 29.4372C114.921 29.0674 114.983 28.486 114.694 28.0503C114.316 27.4806 113.517 27.419 113.034 27.9025L27.9363 113C27.4479 113.489 27.5227 114.305 28.0994 114.685Z" fill="#244579"/>
<path d="M35.6186 118.931C36.0346 119.129 36.5326 119.043 36.8584 118.717L118.731 36.8437C119.057 36.5179 119.143 36.0199 118.945 35.6039C118.624 34.9293 117.736 34.7869 117.208 35.3153L35.33 117.193C34.8017 117.721 34.944 118.609 35.6186 118.931Z" fill="#244579"/>
<path d="M44.108 122.241C44.487 122.357 44.9065 122.255 45.1867 121.975L121.997 45.1793C122.282 44.8945 122.386 44.469 122.268 44.0839C122.03 43.3069 121.058 43.0814 120.483 43.6559L43.6753 120.464C43.1041 121.035 43.3353 122.005 44.108 122.241Z" fill="#244579"/>
<path d="M53.7244 124.385C54.0686 124.434 54.4177 124.316 54.6635 124.07L124.09 54.6432C124.333 54.4009 124.449 54.059 124.401 53.7195C124.276 52.8332 123.196 52.4857 122.563 53.1186L53.1343 122.547C52.4993 123.182 52.8353 124.259 53.7244 124.385Z" fill="#244579"/>
<path d="M62.5116 125.008C62.9545 125.008 63.3974 125.002 63.8389 124.991C64.8347 124.966 65.7763 124.544 66.4806 123.84L123.854 66.4659C124.559 65.7616 124.981 64.8199 125.006 63.8242C125.017 63.3827 125.023 62.9398 125.023 62.4968C125.023 62.4093 124.917 62.3655 124.855 62.4274L62.4469 124.836C62.3887 124.894 62.4294 125.008 62.5116 125.008Z" fill="#244579"/>
<path d="M78.8631 122.836C79.0535 122.784 79.2241 122.683 79.3637 122.543L122.556 79.351C122.697 79.21 122.799 79.0364 122.852 78.8442C123.157 77.736 121.841 77.0134 121.029 77.8261L77.8407 121.014C77.0324 121.822 77.7609 123.139 78.8631 122.836Z" fill="#244579"/>
<path d="M106.834 106.563C108.562 104.826 106.961 103.48 105.228 105.213C103.495 106.946 104.84 108.547 106.578 106.819C106.664 106.734 106.749 106.649 106.834 106.563Z" fill="#244579"/>
</svg>
