<svg width="251" height="251" viewBox="0 0 251 251" fill="none" xmlns="http://www.w3.org/2000/svg">
<mask id="mask0" mask-type="alpha" maskUnits="userSpaceOnUse" x="0" y="0" width="251" height="251">
<circle cx="125.5" cy="125.5" r="125.5" fill="#C4C4C4"/>
</mask>
<g mask="url(#mask0)">
<path d="M208 198.27V313.22" stroke="#FFC263" stroke-width="2" stroke-miterlimit="10"/>
<path d="M217.25 183.84V313.22" stroke="#FFC263" stroke-width="2" stroke-miterlimit="10"/>
<path d="M226.5 169.42V313.22" stroke="#FFC263" stroke-width="2" stroke-miterlimit="10"/>
<path d="M235.75 155V313.22" stroke="#FFC263" stroke-width="2" stroke-miterlimit="10"/>
<path d="M2.15002 90.3C0.960024 90.3 0 89.33 0 88.15C0 86.96 0.970024 86 2.15002 86C3.33002 86 4.29999 86.97 4.29999 88.15C4.29999 89.34 3.34002 90.3 2.15002 90.3Z" fill="#FFC263"/>
<path d="M2.15002 108.77C0.960024 108.77 0 107.8 0 106.62C0 105.43 0.970024 104.47 2.15002 104.47C3.33002 104.47 4.29999 105.44 4.29999 106.62C4.29999 107.8 3.34002 108.77 2.15002 108.77Z" fill="#FFC263"/>
<path d="M22.4 108.77C21.21 108.77 20.25 107.8 20.25 106.62C20.25 105.43 21.22 104.47 22.4 104.47C23.59 104.47 24.55 105.44 24.55 106.62C24.56 107.8 23.59 108.77 22.4 108.77Z" fill="#FFC263"/>
<path d="M2.15002 127.24C0.960024 127.24 0 126.27 0 125.09C0 123.9 0.970024 122.94 2.15002 122.94C3.33002 122.94 4.29999 123.91 4.29999 125.09C4.29999 126.27 3.34002 127.24 2.15002 127.24Z" fill="#FFC263"/>
<path d="M22.4 127.24C21.21 127.24 20.25 126.27 20.25 125.09C20.25 123.9 21.22 122.94 22.4 122.94C23.59 122.94 24.55 123.91 24.55 125.09C24.56 126.27 23.59 127.24 22.4 127.24Z" fill="#FFC263"/>
<path d="M42.65 127.24C41.46 127.24 40.5 126.27 40.5 125.09C40.5 123.9 41.47 122.94 42.65 122.94C43.84 122.94 44.8 123.91 44.8 125.09C44.81 126.27 43.84 127.24 42.65 127.24Z" fill="#FFC263"/>
<path d="M2.15002 145.7C0.960024 145.7 0 144.73 0 143.55C0 142.36 0.970024 141.4 2.15002 141.4C3.33002 141.4 4.29999 142.37 4.29999 143.55C4.29999 144.74 3.34002 145.7 2.15002 145.7Z" fill="#FFC263"/>
<path d="M22.4 145.7C21.21 145.7 20.25 144.73 20.25 143.55C20.25 142.36 21.22 141.4 22.4 141.4C23.59 141.4 24.55 142.37 24.55 143.55C24.56 144.74 23.59 145.7 22.4 145.7Z" fill="#FFC263"/>
<path d="M2.15002 164.17C3.33744 164.17 4.29999 163.207 4.29999 162.02C4.29999 160.833 3.33744 159.87 2.15002 159.87C0.962612 159.87 0 160.833 0 162.02C0 163.207 0.962612 164.17 2.15002 164.17Z" fill="#FFC263"/>
</g>
</svg>
