<svg width="33" height="178" viewBox="0 0 33 178" fill="none" xmlns="http://www.w3.org/2000/svg">
<path d="M5.32999 0H0V21.83H5.32999V0Z" fill="#DA5077"/>
<path d="M18.87 0H13.54V21.83H18.87V0Z" fill="#DA5077"/>
<path d="M32.41 0H27.08V21.83H32.41V0Z" fill="#DA5077"/>
<path d="M5.32999 31.0901H0V52.9201H5.32999V31.0901Z" fill="#DA5077"/>
<path d="M18.87 31.0901H13.54V52.9201H18.87V31.0901Z" fill="#DA5077"/>
<path d="M18.87 62.1699H13.54V83.9999H18.87V62.1699Z" fill="#DA5077"/>
<path d="M32.41 62.1699H27.08V83.9999H32.41V62.1699Z" fill="#DA5077"/>
<path d="M5.32999 93.26H0V115.09H5.32999V93.26Z" fill="#DA5077"/>
<path d="M32.41 93.26H27.08V115.09H32.41V93.26Z" fill="#DA5077"/>
<path d="M5.32999 124.35H0V146.18H5.32999V124.35Z" fill="#DA5077"/>
<path d="M18.87 124.35H13.54V146.18H18.87V124.35Z" fill="#DA5077"/>
<path d="M5.32999 155.44H0V177.27H5.32999V155.44Z" fill="#DA5077"/>
<path d="M18.87 155.44H13.54V177.27H18.87V155.44Z" fill="#DA5077"/>
<path d="M32.41 155.44H27.08V177.27H32.41V155.44Z" fill="#DA5077"/>
</svg>
