<svg id="Layer_1" data-name="Layer 1" xmlns="http://www.w3.org/2000/svg" xmlns:xlink="http://www.w3.org/1999/xlink" viewBox="0 0 335.28999 377.20109"><defs><style>.cls-1{fill:#2062af;}.cls-2{fill:#3c9cd7;}.cls-3{fill:#fff;}.cls-4{fill:url(#linear-gradient);}.cls-5{fill:url(#linear-gradient-2);}.cls-6{fill:url(#linear-gradient-3);}.cls-10,.cls-7{opacity:0.05;}.cls-10,.cls-8{fill:#231f20;}.cls-9{fill:url(#linear-gradient-4);}</style><linearGradient id="linear-gradient" x1="118.7759" y1="193.5283" x2="118.7759" y2="112.727" gradientUnits="userSpaceOnUse"><stop offset="0.3865" stop-color="#d1d3d4" stop-opacity="0"/><stop offset="1" stop-color="#d1d3d4"/></linearGradient><linearGradient id="linear-gradient-2" x1="219.73244" y1="153.2275" x2="219.73244" y2="69.2387" xlink:href="#linear-gradient"/><linearGradient id="linear-gradient-3" x1="70.1803" y1="229.56734" x2="264.24409" y2="229.56734" gradientUnits="userSpaceOnUse"><stop offset="0" stop-color="#e8e7e5"/><stop offset="1" stop-color="#fff"/></linearGradient><linearGradient id="linear-gradient-4" x1="61.2515" y1="89.7995" x2="271.94339" y2="89.7995" xlink:href="#linear-gradient-3"/></defs><title>css3_logo</title><polygon class="cls-1" points="303.853 340.524 167.644 377.201 31.432 340.524 0 0 335.29 0 303.853 340.524"/><polygon class="cls-2" points="167.642 27.582 167.642 347.949 167.949 348.032 278.179 318.351 303.621 27.582 167.642 27.582"/><polygon class="cls-3" points="167.521 112.727 70.03 153.33 73.264 193.528 167.521 153.227 267.785 110.36 271.943 69.239 167.521 112.727"/><polygon class="cls-4" points="70.03 153.33 73.264 193.528 167.521 153.227 167.521 112.727 70.03 153.33"/><polygon class="cls-5" points="271.943 69.239 167.521 112.727 167.521 153.227 267.785 110.36 271.943 69.239"/><polygon class="cls-6" points="70.18 153.33 73.415 193.528 218.039 193.99 214.805 247.587 167.215 260.986 121.467 249.435 118.695 216.168 76.186 216.168 81.731 280.392 167.676 305.805 253.154 280.853 264.244 153.33 70.18 153.33"/><g class="cls-7"><polygon class="cls-8" points="167.521 153.33 70.03 153.33 73.264 193.528 167.521 193.829 167.521 153.33"/><polygon class="cls-8" points="167.521 260.856 167.06 260.986 121.317 249.435 118.545 216.168 76.037 216.168 81.581 280.392 167.521 305.805 167.521 260.856"/></g><polygon class="cls-9" points="61.251 69.239 271.943 69.239 267.785 110.36 66.333 110.36 61.251 69.239"/><polygon class="cls-10" points="167.521 69.239 61.251 69.239 66.333 110.36 167.521 110.36 167.521 69.239"/></svg>