<?xml version="1.0" encoding="utf-8"?>
<!-- Generator: Adobe Illustrator 21.0.0, SVG Export Plug-In . SVG Version: 6.00 Build 0)  -->
<svg version="1.1"
	 id="Express" inkscape:version="0.92.2 (5c3e80d, 2017-08-06)" sodipodi:docname="expressjs-ar21.svg" xmlns:cc="http://creativecommons.org/ns#" xmlns:dc="http://purl.org/dc/elements/1.1/" xmlns:inkscape="http://www.inkscape.org/namespaces/inkscape" xmlns:rdf="http://www.w3.org/1999/02/22-rdf-syntax-ns#" xmlns:sodipodi="http://sodipodi.sourceforge.net/DTD/sodipodi-0.dtd" xmlns:svg="http://www.w3.org/2000/svg"
	 xmlns="http://www.w3.org/2000/svg" xmlns:xlink="http://www.w3.org/1999/xlink" x="0px" y="0px" viewBox="0 0 120 60"
	 style="enable-background:new 0 0 120 60;" xml:space="preserve">
<style type="text/css">
	.st0{fill:#212630;}
</style>
<sodipodi:namedview  bordercolor="#666666" borderopacity="1" gridtolerance="10" guidetolerance="10" id="namedview20" inkscape:current-layer="Express" inkscape:cx="-2.1694915" inkscape:cy="64" inkscape:pageopacity="0" inkscape:pageshadow="2" inkscape:window-height="1001" inkscape:window-maximized="1" inkscape:window-width="1920" inkscape:window-x="-9" inkscape:window-y="-9" inkscape:zoom="1.84375" objecttolerance="10" pagecolor="#ffffff" showgrid="false">
	</sodipodi:namedview>
<title  id="title2">Artboard 12</title>
<g id="original-wordmark" transform="matrix(0.85101532,0,0,0.85101532,5.5198422,-24.472693)">
	<path id="path4" inkscape:connector-curvature="0" class="st0" d="M37.3,79.7V48.9h1.7v4.9c0.2-0.2,0.4-0.4,0.5-0.7
		c1.4-2.9,4.3-4.7,7.6-4.7c3.8-0.1,6.9,1.3,8.7,4.7c2.4,4.3,2.5,9.4,0.4,13.8c-1.7,3.8-5.9,5.7-10.4,5c-2.8-0.2-5.4-1.9-6.7-4.4
		v12.3H37.3z M38.9,59.8c0.1,1.5,0.2,2.6,0.4,3.6c0.7,4.1,3.1,6.6,6.9,7c3.7,0.6,7.3-1.5,8.6-5c1.5-3.5,1.4-7.6-0.3-11
		c-1.4-3.1-4.7-5-8.1-4.5c-3.2,0.2-5.9,2.5-6.7,5.5C39.4,56.9,39.1,58.3,38.9,59.8z"/>
	<path id="path6" inkscape:connector-curvature="0" class="st0" d="M91.8,64c-0.5,4.5-4.3,7.9-8.8,8c-7,0.4-10.3-4.3-10.8-9.7
		c-0.4-2.9,0.1-5.9,1.4-8.5c1.8-3.7,5.8-5.9,9.9-5.3c3.9,0.3,7.2,3.1,8.1,6.9c0.4,1.7,0.6,3.4,0.8,5.1H73.9c-0.3,4.9,2.3,8.8,6,9.7
		c4.6,1.1,8.6-0.9,10-5.3C90.2,63.8,90.8,63.7,91.8,64z M73.9,58.9h16.5c-0.1-5.2-3.3-9-7.7-9C77.7,49.8,74.1,53.5,73.9,58.9z"/>
	<path id="path8" inkscape:connector-curvature="0" class="st0" d="M95.2,64.1h1.6c0.1,2.4,1.6,4.6,3.8,5.6c2.8,1.2,5.9,1.2,8.6-0.2
		c1.5-0.7,2.4-2.2,2.3-3.8c0.1-1.6-0.9-3-2.4-3.5c-1.8-0.7-3.7-1-5.5-1.6c-1.9-0.5-3.7-1.2-5.5-2c-2.9-1.4-3.1-7,0.2-8.7
		c3.4-1.9,7.6-2,11.1-0.2c2.1,1.2,3.3,3.6,3,6h-1.4c0-0.1-0.1-0.1-0.1-0.2c-0.2-4.4-3.9-5.8-7.9-5.4c-1.2,0.1-2.3,0.5-3.4,1
		c-1.3,0.6-2.1,2-2,3.4c0,1.4,0.9,2.7,2.3,3.2c1.8,0.6,3.6,1,5.4,1.5c1.4,0.4,3,0.7,4.4,1.1c2,0.7,3.4,2.5,3.5,4.6
		c0.3,2.3-0.8,4.6-3,5.7c-3.8,2.2-10.1,1.6-12.9-1.1C96,68.1,95.2,66.1,95.2,64.1z"/>
	<path id="path10" inkscape:connector-curvature="0" class="st0" d="M133.7,55.6h-1.5c0-0.2-0.1-0.4-0.1-0.6c-0.1-2.3-1.7-4.3-4-4.8
		c-2.1-0.6-4.4-0.5-6.4,0.3c-1.7,0.5-2.8,2-2.8,3.7c-0.1,1.7,1.1,3.2,2.7,3.6c2.3,0.7,4.6,1.1,6.9,1.8c0.7,0.2,1.5,0.4,2.2,0.7
		c3,1.1,4.5,4.3,3.4,7.3c-0.5,1.5-1.7,2.7-3.1,3.3c-3.3,1.5-7,1.5-10.3,0.1c-2.7-1.2-4.4-3.9-4.3-6.9h0.6h0.8
		c0.9,4.5,5.3,7.4,9.8,6.4c1-0.2,2-0.6,2.8-1.2c1.4-0.7,2.3-2.2,2.2-3.8c0.1-1.6-0.9-3-2.4-3.5c-1.8-0.7-3.7-1-5.5-1.6
		c-1.9-0.5-3.7-1.2-5.5-2c-2.8-1.4-3.1-6.9,0.2-8.7c3.5-2,7.8-2.1,11.3-0.1C132.9,50.9,134,53.2,133.7,55.6z"/>
	<path id="path12" inkscape:connector-curvature="0" class="st0" d="M34.5,71.4c-1.2,0.5-2.6-0.1-3.2-1.2c-1.9-2.8-3.9-5.4-5.9-8.1
		l-0.9-1.1c-2.3,3.1-4.7,6.2-6.8,9.3c-0.6,1.1-1.9,1.6-3.1,1.2l8.8-11.8l-8.2-10.7c1.2-0.4,2.6,0,3.2,1.1c1.9,2.8,4,5.4,6.1,8.2
		c2.1-2.8,4.2-5.5,6.1-8.2c0.6-1.1,1.9-1.6,3.1-1.1l-3.2,4.2c-1.4,1.9-2.8,3.8-4.3,5.6c-0.5,0.4-0.5,1.1-0.1,1.6
		c0,0,0.1,0.1,0.1,0.1C29,64.1,31.7,67.7,34.5,71.4z"/>
	<path id="path14" inkscape:connector-curvature="0" class="st0" d="M71.9,48.8v1.6c-4.6-0.3-8.5,3.1-8.8,7.7c0,0.3,0,0.6,0,0.8
		c0,3.8,0,7.5,0,11.3c0,0.4,0,0.8,0,1.3h-1.6V48.9h1.6v4.6C65,50.1,68.1,48.9,71.9,48.8z"/>
	<path id="path16" inkscape:connector-curvature="0" class="st0" d="M-6.5,59.4c0.2-1.1,0.4-2.4,0.7-3.5c2-7,10-9.9,15.5-5.6
		c3.2,2.5,4,6.1,3.9,10.2H-4.6C-4.9,67.8,0.3,72.1,7,69.9c2.2-0.8,3.9-2.6,4.4-4.9c0.4-1.1,0.9-1.3,2-1c-0.4,2.8-2,5.3-4.4,6.8
		C5,73-0.1,72.3-3.4,69.1c-1.6-1.8-2.6-4.1-2.8-6.6c0-0.4-0.1-0.8-0.2-1.1C-6.5,60.7-6.5,60.1-6.5,59.4z M-4.6,59h16.5
		c-0.1-5.3-3.4-9-7.8-9C-0.8,49.9-4.4,53.5-4.6,59L-4.6,59z"/>
</g>
</svg>
