<svg width="322" height="322" viewBox="0 0 322 322" fill="none" xmlns="http://www.w3.org/2000/svg">
<path fill-rule="evenodd" clip-rule="evenodd" d="M161 3.99998C247.707 3.99998 318 74.2932 318 161L319.5 161C319.5 248.535 248.535 319.5 161 319.5V320.5C249.087 320.5 320.5 249.087 320.5 161L322 161C322 72.0841 249.916 -1.52588e-05 161 -1.52588e-05V3.99998ZM2.5 161C2.5 73.4648 73.4648 2.5 161 2.5V1.5C72.9125 1.5 1.5 72.9125 1.5 161L0 161C0 249.916 72.0841 322 161 322V318C74.2932 318 4 247.707 4 161L2.5 161ZM14.8562 161C14.8562 80.284 80.2841 14.8561 161 14.8561L161 16.3562C240.888 16.3562 305.644 81.1125 305.644 161L307.144 161C307.144 241.716 241.716 307.144 161 307.144L161 305.644C81.1125 305.644 16.3562 240.888 16.3562 161L14.8562 161ZM308.144 161L309.644 161C309.644 78.9034 243.097 12.3562 161 12.3562L161 13.8561C79.7318 13.8561 13.8562 79.7318 13.8562 161L12.3562 161C12.3562 243.097 78.9033 309.644 161 309.644L161 308.144C242.268 308.144 308.144 242.268 308.144 161ZM26.2415 161C26.2415 86.576 86.576 26.2415 161 26.2415V25.2415C86.0237 25.2415 25.2415 86.0237 25.2415 161L23.7415 161C23.7415 236.805 85.1953 298.258 161 298.258V294.258C87.4044 294.258 27.7415 234.596 27.7415 161L26.2415 161ZM161 37.6748C92.8918 37.6748 37.6748 92.8918 37.6748 161L39.1748 161C39.1748 228.28 93.7203 282.825 161 282.825V286.825C91.5111 286.825 35.1748 230.489 35.1748 161L36.6748 161C36.6748 92.3396 92.3396 36.6748 161 36.6748V37.6748ZM49.9385 161C49.9385 222.337 99.6627 272.061 161 272.061C222.337 272.062 272.061 222.337 272.061 161C272.061 99.6627 222.337 49.9385 161 49.9385C99.6627 49.9385 49.9385 99.6627 49.9385 161ZM282.825 161C282.825 93.7203 228.28 39.1749 161 39.1749V35.1749C230.489 35.1749 286.825 91.5112 286.825 161L285.325 161C285.325 229.66 229.66 285.325 161 285.325V284.325C229.108 284.325 284.325 229.108 284.325 161L282.825 161ZM161 295.758C235.424 295.758 295.758 235.424 295.758 161L294.258 161C294.258 87.4044 234.596 27.7416 161 27.7416V23.7416C236.805 23.7416 298.258 85.1953 298.258 161L296.758 161C296.758 235.976 235.976 296.758 161 296.758V295.758Z" fill="#DA5077"/>
</svg>
