<svg id="Layer_1" data-name="Layer 1" xmlns="http://www.w3.org/2000/svg" viewBox="0 0 511.41163 145.71278"><defs><style>.cls-1,.cls-2{fill:#fbfbfd;}.cls-1{opacity:0.75;}.cls-3{fill:#fff;}.cls-4{fill:#a6a385;}.cls-5{fill:#499d4a;}.cls-6{fill:#58aa50;}</style></defs><title>mongodb_logo(darkmode)</title><path class="cls-1" d="M476.71344,60.46262c-.46106.09238-.92212,1.10775-.92212,1.66119-.09238,3.69106-.18475,13.47346-.18475,20.11737a.68439.68439,0,0,0,.55344.55344c1.384.09238,4.70642.18477,7.56689.18477a19.73418,19.73418,0,0,0,7.56775-1.10689c3.32153-1.66119,4.89035-5.26073,4.89035-9.229,0-8.95094-6.27524-12.36571-15.59573-12.36571a14.85006,14.85006,0,0,0-3.87582.18477Zm23.8093,41.25011c0-9.1357-6.73715-14.21167-18.91809-14.21167a53.43979,53.43979,0,0,0-5.35226.09238c-.27716.09238-.64581.27715-.64581.55431,0,6.55153-.09241,16.97975.18475,21.03949.1839,1.75358,1.47644,4.24537,3.04523,4.98358,1.66034.923,5.44464,1.10688,8.028,1.10688,7.29062,0,13.65823-4.05973,13.65823-13.565ZM457.88858,55.38752c.92212,0,3.69107.27629,10.79691.27629,6.7363,0,12.08856-.18391,18.641-.18391,8.028,0,19.102,2.86047,19.102,14.85664,0,5.90656-4.153,10.613-9.59763,12.92-.27628.09238-.27628.27629,0,.36868,7.75168,1.93835,14.58121,6.73716,14.58121,15.78048,0,8.85941-5.537,14.488-13.56583,17.99512-4.8912,2.12225-10.98169,2.86047-17.16452,2.86047-4.70645,0-17.34845-.55344-24.36188-.36868-.73822-.27715.64581-3.59954,1.29166-4.153a17.2192,17.2192,0,0,0,4.70642-.73821c2.49179-.64583,2.76807-1.384,3.1376-5.16749.18478-3.23.18478-14.67359.18478-22.79393,0-11.16644.09238-18.73333,0-22.42439-.09238-2.86047-1.10776-3.78345-3.13763-4.33775-1.56879-.27629-4.153-.64583-6.27524-.92212-.46191-.46192,1.1069-3.59954,1.66119-3.96822Zm-53.24713,57.39926c2.21552,1.75272,6.5524,2.49092,10.42822,2.49092,4.98358,0,9.96631-.92211,14.76511-5.25986,4.8912-4.42928,8.30511-11.258,8.30511-22.14724,0-10.42822-3.9682-18.9181-12.08853-23.90082-4.614-2.86133-10.52063-4.0606-17.3493-4.0606a13.8222,13.8222,0,0,0-5.16748.64583,2.71709,2.71709,0,0,0-.923,1.47643c-.18478,1.846-.18478,16.05677-.18478,24.36274,0,8.58226,0,20.57843.18478,21.96247a5.7256,5.7256,0,0,0,2.02985,4.43014Zm-20.948-57.39926c1.7536,0,8.4899.27629,11.71988.27629,5.81418,0,9.96631-.27629,20.948-.27629,9.22809,0,16.97977,2.49179,22.51678,7.19736,6.7363,5.81418,10.24344,13.843,10.24344,23.62453,0,13.93452-6.36761,21.96333-12.73523,26.57738-6.36676,4.70643-14.67273,7.47451-26.48413,7.47451-6.27524,0-17.07214-.18478-26.02393-.27715h-.09238c-.46106-.82973.73819-4.05974,1.47641-4.15212a14.67413,14.67413,0,0,0,4.24536-.8306c1.9375-.73821,2.307-1.75358,2.5842-5.16749.27628-6.36762.1839-14.0269.1839-22.70155,0-6.18285.09238-18.27227-.09238-22.1481-.27631-3.22914-1.66034-4.05974-4.42929-4.614-1.384-.27629-3.23-.64583-5.81332-.92212-.36954-.64669,1.29166-3.50716,1.75272-4.0606Z" transform="translate(-0.00039 -0.2029)"/><path class="cls-2" d="M272.03345,116.38546a18.57559,18.57559,0,0,1-5.99893-1.56881,2.81515,2.81515,0,0,1-.73822-1.47643c-.18475-3.23-.18475-12.45809-.18475-18.64095,0-4.98358-.82974-9.32047-2.95285-12.36571a12.601,12.601,0,0,0-10.70453-5.537c-4.06059,0-9.50523,2.76894-14.0269,6.64478-.09238.09152-.8306.73821-.7382-.27715,0-1.01537.18477-3.04523.27715-4.42928a2.398,2.398,0,0,0-.64583-1.93835c-2.9537,1.47643-11.25882,3.41477-14.304,3.69106-2.21465.46192-2.76808,2.58418-.46106,3.32239h.09238a20.501,20.501,0,0,1,5.44379,2.39941,2.871,2.871,0,0,1,.8306,2.58418c.09238,6.92107.09238,17.5332-.18391,23.34737-.09238,2.307-.7382,3.13675-2.3994,3.50629l.1839-.09238a36.32983,36.32983,0,0,1-3.87582.73821c-.55345.55344-.55345,3.50716,0,4.153,1.01537,0,6.36761-.27715,10.79776-.27715,6.09047,0,9.22809.27715,10.79689.27715a6.00594,6.00594,0,0,0,.46106-4.153,17.1263,17.1263,0,0,1-4.24451-.64583c-1.66119-.36955-2.12311-1.19927-2.2155-3.13762-.1839-4.8912-.1839-15.22617-.1839-22.23962a4.4457,4.4457,0,0,1,1.10689-3.41477,13.95788,13.95788,0,0,1,8.58226-3.13762,9.541,9.541,0,0,1,6.36761,2.12312,9.07576,9.07576,0,0,1,2.95285,5.81332c.46106,3.96822.27716,11.81226.27716,18.64095,0,3.69106-.27716,4.614-1.66119,5.0751a17.56985,17.56985,0,0,1-4.24538.8306c-.64583.64583-.46106,3.50716,0,4.153,2.67656,0,5.81419-.27716,10.42824-.27716,5.72092,0,9.41284.27716,10.88928.27716a6.42274,6.42274,0,0,0,.27628-3.96822Zm25.562-35.25116c-4.89117,0-7.93643,3.78345-7.93643,9.68915,0,5.99809,2.67569,12.91915,10.24347,12.91915,1.29166,0,3.691-.55344,4.79794-1.8451,1.75357-1.66119,2.9537-4.98358,2.9537-8.48988,0-7.65928-3.7843-12.27332-10.05869-12.27332Zm-.6467,40.78819a7.93,7.93,0,0,0-3.96735,1.01537c-3.87668,2.49093-5.62939,4.89033-5.62939,7.75166a8.16173,8.16173,0,0,0,3.23,6.64391c2.67569,2.307,6.36673,3.41478,11.07318,3.41478,9.41284,0,13.56583-5.076,13.56583-10.05869,0-3.50716-1.75357-5.81418-5.35226-7.10583-2.58417-1.10775-7.29059-1.66119-12.92-1.66119Zm.6467,23.99319c-5.62939,0-9.69-1.20013-13.19629-3.87582a12.16414,12.16414,0,0,1-4.8912-9.13571,7.06834,7.06834,0,0,1,1.846-4.614c1.0145-1.10774,3.22913-3.23,8.48987-6.82867.1839-.09238.27628-.18477.27628-.36954a.61184.61184,0,0,0-.36865-.46106c-4.33777-1.66119-5.62943-4.33775-5.999-5.81418v-.18477c-.09152-.55344-.27628-1.10689.55432-1.6612.64581-.46105,1.56879-1.0145,2.58328-1.66032a37.889,37.889,0,0,0,4.24539-2.76894.67709.67709,0,0,0,.18475-.55344.61118.61118,0,0,0-.36954-.46106c-6.45914-2.12312-9.68915-6.92193-9.68915-14.11929a14.01058,14.01058,0,0,1,5.9057-11.62749c2.5842-2.03073,9.04334-4.52166,13.2887-4.52166h.27716c4.33688.09152,6.7363,1.0145,10.15021,2.21464a17.08126,17.08126,0,0,0,5.99893.92212c3.59869,0,5.16748-1.10689,6.45914-2.39854a5.03785,5.03785,0,0,1,.36954,1.8451,6.96862,6.96862,0,0,1-1.20013,4.24537,5.242,5.242,0,0,1-4.05972,1.75358h-.46191a20.54611,20.54611,0,0,1-2.39941-.36954l-.36868.18477c-.09238.18477,0,.36868.09238.64583l.09241.18477a34.11888,34.11888,0,0,1,.55344,3.96822c0,7.56689-3.04523,10.88842-6.27524,13.38021a21.24634,21.24634,0,0,1-10.79691,4.153,11.54686,11.54686,0,0,0-1.29166.09238c-.46191,0-1.10776.09238-1.20013.09238h-.09238c-.73822.18391-2.58331,1.10689-2.58331,2.6757,0,1.384.8306,3.04523,4.79794,3.32239.8306.09238,1.66119.09238,2.58417.18477,5.25989.36868,11.81229.8306,14.85751,1.8451a10.343,10.343,0,0,1,6.92105,9.87478c0,6.82867-4.89117,13.1963-13.01154,17.16365a29.69038,29.69038,0,0,1-12.27332,2.67656Zm52.60046-64.32032a8.56906,8.56906,0,0,0-4.98358,1.384c-3.59869,2.21464-5.44464,6.64478-5.44464,13.10392,0,12.08942,6.09045,20.57929,14.76511,20.57929a9.38977,9.38977,0,0,0,6.36761-2.21464c2.67569-2.2155,4.06061-6.64478,4.06061-12.82763,0-11.99617-5.999-20.025-14.76511-20.025Zm1.66119,39.49653c-15.68811,0-21.3175-11.53511-21.3175-22.332,0-7.56689,3.04523-13.38107,9.13568-17.53406a27.77617,27.77617,0,0,1,14.11929-4.15212c11.99619,0,20.39453,8.58226,20.39453,20.948,0,8.39749-3.32239,15.0414-9.69,19.102a25.59259,25.59259,0,0,1-12.64288,3.96822ZM187.411,81.59536a8.57092,8.57092,0,0,0-4.98358,1.384c-3.59868,2.21464-5.44464,6.64478-5.44464,13.10392,0,12.08942,6.09047,20.57929,14.76511,20.57929a9.38981,9.38981,0,0,0,6.36763-2.21464c2.67569-2.2155,4.06059-6.64478,4.06059-12.82763,0-11.99617-5.90656-20.025-14.76511-20.025Zm1.66119,39.49653c-15.6881,0-21.3175-11.53511-21.3175-22.332,0-7.56689,3.04523-13.38107,9.1357-17.53406a27.77613,27.77613,0,0,1,14.11929-4.15212c11.997,0,20.39452,8.58226,20.39452,20.948,0,8.39749-3.32239,15.0414-9.69,19.102a24.99821,24.99821,0,0,1-12.642,3.96822Zm-105.478-.923a3.95328,3.95328,0,0,1-.27715-2.12225,3.11434,3.11434,0,0,1,.27715-1.384,33.83934,33.83934,0,0,0,4.05974-.8306c1.846-.46192,2.58418-1.47643,2.67656-3.78345.27715-5.537.27715-16.05763.18477-23.34737v-.18477a2.79523,2.79523,0,0,0-1.01537-2.58418,20.79557,20.79557,0,0,0-5.537-2.39941c-.8306-.27629-1.384-.73821-1.29166-1.29166,0-.55344.55344-1.19927,1.75358-1.384a67.57846,67.57846,0,0,0,14.11842-3.59868,2.2814,2.2814,0,0,1,.46193,1.47643l-.09238,1.0145c-.09238,1.01537-.18477,2.2155-.18477,3.41477a.71365.71365,0,0,0,.7382.64583,1.31307,1.31307,0,0,0,.55431-.18477c5.90569-4.614,11.25795-6.27524,14.026-6.27524,4.52252,0,8.02882,2.12312,10.70538,6.55239a.69451.69451,0,0,0,.64583.36868.65616.65616,0,0,0,.55344-.27629c5.44465-4.153,10.88929-6.64478,14.488-6.64478,8.58226,0,13.65822,6.36762,13.65822,17.16452,0,3.04523,0,7.01345-.09238,10.613,0,3.22914-.09239,6.18285-.09239,8.30511a2.90379,2.90379,0,0,0,1.66119,2.21464,19.691,19.691,0,0,0,5.35226,1.29166h.09238a7.4088,7.4088,0,0,1-.55344,3.50716,22.583,22.583,0,0,1-2.307-.09238c-1.75359-.09238-4.24538-.18477-7.01346-.18477-5.72179,0-8.67464.09238-11.536.27715a8.982,8.982,0,0,1,0-3.50716,28.46281,28.46281,0,0,0,3.50716-.8306c1.846-.55344,2.307-1.384,2.3994-3.78344,0-1.75272.36868-16.7026-.18477-20.30214a9.09861,9.09861,0,0,0-9.41286-8.028,16.3639,16.3639,0,0,0-9.41286,3.59868,1.644,1.644,0,0,0-.36868.923v.09238a42.6534,42.6534,0,0,1,.36868,7.56689v5.99809c0,4.153-.09238,8.02882,0,10.98167a2.703,2.703,0,0,0,2.2155,2.86133c.55345.09151.92212.18391,1.384.27629.8306.18477,1.66119.36954,2.95285.64583a4.98327,4.98327,0,0,1-.09239,2.58418,1.7713,1.7713,0,0,1-.36867.923c-3.13762-.09238-6.36763-.18477-11.07406-.18477-1.384,0-3.78345.09238-5.81418.09238-1.66119,0-3.23.09238-4.15212.09238a4.89,4.89,0,0,1-.27715-1.846,2.876,2.876,0,0,1,.36954-1.66119,6.21231,6.21231,0,0,1,1.29166-.18391c1.10689-.18477,2.02987-.36954,2.95285-.55431,1.56881-.46106,2.12225-1.29166,2.21464-3.32153.27715-4.614.55344-17.81035-.09238-21.13274-1.10689-5.35226-4.15212-8.02882-9.04331-8.02882a16.9383,16.9383,0,0,0-9.41286,3.59954,2.98872,2.98872,0,0,0-.8306,2.12225V94.884c0,6.64391,0,14.94988.09238,18.54856a2.86124,2.86124,0,0,0,2.58418,2.86047,19.04625,19.04625,0,0,0,2.12225.36954l1.66119.27629a7.75056,7.75056,0,0,1-.27716,3.50716c-.923,0-2.02986-.09238-3.32239-.09238-1.93748-.09238-4.42928-.18477-7.19735-.18477-3.23,0-5.537.09238-7.383.18477a22.31893,22.31893,0,0,0-3.41391-.18477Z" transform="translate(-0.00039 -0.2029)"/><path class="cls-3" d="M35.05344,142.317,31.27,141.02449s.46192-19.28677-6.45914-20.67081c-4.614-5.35226.73821-227.01286,17.34842-.73821,0,0-5.72093,2.86047-6.7363,7.75166-1.10775,4.79881-.36954,14.94987-.36954,14.94987Z" transform="translate(-0.00039 -0.2029)"/><path class="cls-4" d="M35.05344,142.317,31.27,141.02449s.46192-19.28677-6.45914-20.67081c-4.614-5.35226.73821-227.01286,17.34842-.73821,0,0-5.72093,2.86047-6.7363,7.75166-1.10775,4.79881-.36954,14.94987-.36954,14.94987Z" transform="translate(-0.00039 -0.2029)"/><path class="cls-3" d="M37.08417,123.67606S70.21307,101.8975,62.46141,56.58679c-7.47451-32.94413-25.101-43.741-27.03844-47.894A46.55831,46.55831,0,0,1,31.27.57244l1.3849,91.63505c0,.09238-2.86133,28.0538,4.42928,31.46857" transform="translate(-0.00039 -0.2029)"/><path class="cls-5" d="M37.08417,123.67606S70.21307,101.8975,62.46141,56.58679c-7.47451-32.94413-25.101-43.741-27.03844-47.894A46.55831,46.55831,0,0,1,31.27.57244l1.3849,91.63505c0,.09238-2.86133,28.0538,4.42928,31.46857" transform="translate(-0.00039 -0.2029)"/><path class="cls-3" d="M29.33251,124.87534S-1.76653,103.65022.07943,66.2768C1.83215,28.90253,23.79548,10.53874,28.04,7.21635c2.76895-2.95285,2.86133-4.0606,3.0461-7.01345,1.93748,4.153,1.56881,62.10569,1.8451,68.93437.8306,26.30022-1.47642,50.75535-3.59868,55.73807Z" transform="translate(-0.00039 -0.2029)"/><path class="cls-6" d="M29.33251,124.87534S-1.76653,103.65022.07943,66.2768C1.83215,28.90253,23.79548,10.53874,28.04,7.21635c2.76895-2.95285,2.86133-4.0606,3.0461-7.01345,1.93748,4.153,1.56881,62.10569,1.8451,68.93437.8306,26.30022-1.47642,50.75535-3.59868,55.73807Z" transform="translate(-0.00039 -0.2029)"/></svg>