<svg xmlns="http://www.w3.org/2000/svg" viewBox="0 0 512 314" width="512" height="314">
	<defs>
		<linearGradient id="grd1" gradientUnits="userSpaceOnUse"  x1="7566.239" y1="2243.172" x2="3166.864" y2="11217.811">
			<stop offset="0" stop-color="#41873f"  />
			<stop offset="32.88" stop-color="#418b3d"  />
			<stop offset="63.52" stop-color="#419637"  />
			<stop offset="93.19" stop-color="#3fa92d"  />
			<stop offset="100" stop-color="#3fae2a"  />
		</linearGradient>
		<clipPath clipPathUnits="userSpaceOnUse" id="cp1">
			<path d="M191.97 72.35C190.12 71.31 187.93 71.31 186.08 72.35L137.42 100.44C135.57 101.48 134.53 103.44 134.53 105.52L134.53 161.81C134.53 163.89 135.69 165.85 137.42 166.89L186.08 194.98C187.93 196.02 190.12 196.02 191.97 194.98L240.63 166.89C242.48 165.85 243.52 163.89 243.52 161.81L243.52 105.52C243.52 103.44 242.36 101.48 240.63 100.44L191.97 72.35L191.97 72.35Z" />
		</clipPath>
		<linearGradient id="grd2" gradientUnits="userSpaceOnUse"  x1="4742.149" y1="6920.011" x2="17086.457" y2="-2200.614">
			<stop offset="13.76" stop-color="#41873f"  />
			<stop offset="40.32" stop-color="#54a044"  />
			<stop offset="71.36" stop-color="#66b848"  />
			<stop offset="90.81" stop-color="#6cc04a"  />
		</linearGradient>
		<clipPath clipPathUnits="userSpaceOnUse" id="cp2">
			<path d="M191.97 72.35C190.12 71.31 187.93 71.31 186.08 72.35L137.42 100.44C135.57 101.48 134.53 103.44 134.53 105.52L134.53 161.81C134.53 163.89 135.69 165.85 137.42 166.89L186.08 194.98C187.93 196.02 190.12 196.02 191.97 194.98L240.63 166.89C242.48 165.85 243.52 163.89 243.52 161.81L243.52 105.52C243.52 103.44 242.36 101.48 240.63 100.44L191.97 72.35L191.97 72.35Z" />
		</clipPath>
		<linearGradient id="grd3" gradientUnits="userSpaceOnUse"  x1="-3897.229" y1="66.721" x2="5109.996" y2="66.721">
			<stop offset="9.192" stop-color="#6cc04a"  />
			<stop offset="28.64" stop-color="#66b848"  />
			<stop offset="59.68" stop-color="#54a044"  />
			<stop offset="86.24" stop-color="#41873f"  />
		</linearGradient>
		<linearGradient id="grd4" gradientUnits="userSpaceOnUse"  x1="-329.24" y1="6282.869" x2="10929.79" y2="6282.869">
			<stop offset="9.192" stop-color="#6cc04a"  />
			<stop offset="28.64" stop-color="#66b848"  />
			<stop offset="59.68" stop-color="#54a044"  />
			<stop offset="86.24" stop-color="#41873f"  />
		</linearGradient>
		<linearGradient id="grd5" gradientUnits="userSpaceOnUse"  x1="-3123.006" y1="194.684" x2="254.704" y2="194.684">
			<stop offset="9.192" stop-color="#6cc04a"  />
			<stop offset="28.64" stop-color="#66b848"  />
			<stop offset="59.68" stop-color="#54a044"  />
			<stop offset="86.24" stop-color="#41873f"  />
		</linearGradient>
		<linearGradient id="grd6" gradientUnits="userSpaceOnUse"  x1="-5523.902" y1="1888.829" x2="5735.128" y2="1888.829">
			<stop offset="9.192" stop-color="#6cc04a"  />
			<stop offset="28.64" stop-color="#66b848"  />
			<stop offset="59.68" stop-color="#54a044"  />
			<stop offset="86.24" stop-color="#41873f"  />
		</linearGradient>
		<linearGradient id="grd7" gradientUnits="userSpaceOnUse"  x1="7375.435" y1="-7082.081" x2="431.582" y2="7083.375">
			<stop offset="0" stop-color="#41873f"  />
			<stop offset="32.88" stop-color="#418b3d"  />
			<stop offset="63.52" stop-color="#419637"  />
			<stop offset="93.19" stop-color="#3fa92d"  />
			<stop offset="100" stop-color="#3fae2a"  />
		</linearGradient>
	</defs>
	<style>
		tspan { white-space:pre }
		.shp0 { fill: #539e43 } 
		.shp1 { fill: #fbfbfd } 
		.shp2 { fill: url(#grd1) } 
		.shp3 { fill: none } 
		.shp4 { fill: url(#grd2) } 
		.shp5 { fill: url(#grd3) } 
		.shp6 { fill: url(#grd4) } 
		.shp7 { fill: url(#grd5) } 
		.shp8 { fill: url(#grd6) } 
		.shp9 { fill: url(#grd7) } 
	</style>
	<g id="Layer">
		<path id="Layer" fill-rule="evenodd" class="shp0" d="M253.11 313.09C251.38 313.09 249.76 312.63 248.26 311.82L232.88 302.69C230.57 301.42 231.73 300.96 232.42 300.73C235.54 299.69 236.12 299.46 239.36 297.61C239.7 297.38 240.17 297.49 240.51 297.72L252.3 304.77C252.76 305 253.34 305 253.69 304.77L299.8 278.07C300.27 277.84 300.5 277.38 300.5 276.8L300.5 223.52C300.5 222.95 300.27 222.48 299.8 222.25L253.69 195.67C253.23 195.44 252.65 195.44 252.3 195.67L206.19 222.25C205.72 222.48 205.49 223.06 205.49 223.52L205.49 276.8C205.49 277.27 205.72 277.84 206.19 278.07L218.78 285.36C225.6 288.82 229.88 284.78 229.88 280.73L229.88 228.15C229.88 227.45 230.46 226.76 231.27 226.76L237.16 226.76C237.85 226.76 238.55 227.34 238.55 228.15L238.55 280.73C238.55 289.86 233.58 295.18 224.91 295.18C222.25 295.18 220.17 295.18 214.28 292.29L202.14 285.36C199.14 283.62 197.29 280.39 197.29 276.92L197.29 223.64C197.29 220.17 199.14 216.94 202.14 215.2L248.26 188.5C251.15 186.89 255.08 186.89 257.96 188.5L304.08 215.2C307.08 216.94 308.93 220.17 308.93 223.64L308.93 276.92C308.93 280.39 307.08 283.62 304.08 285.36L257.96 312.05C256.46 312.75 254.73 313.09 253.11 313.09ZM267.33 276.46C247.1 276.46 242.94 267.21 242.94 259.35C242.94 258.66 243.52 257.96 244.33 257.96L250.34 257.96C251.03 257.96 251.61 258.43 251.61 259.12C252.53 265.25 255.19 268.25 267.44 268.25C277.15 268.25 281.31 266.06 281.31 260.85C281.31 257.85 280.16 255.65 265.01 254.15C252.42 252.88 244.56 250.11 244.56 240.05C244.56 230.69 252.42 225.14 265.59 225.14C280.39 225.14 287.67 230.23 288.59 241.32C288.59 241.67 288.48 242.02 288.25 242.36C288.01 242.59 287.67 242.82 287.32 242.82L281.31 242.82C280.73 242.82 280.16 242.36 280.04 241.78C278.65 235.43 275.07 233.35 265.59 233.35C254.96 233.35 253.69 237.05 253.69 239.82C253.69 243.17 255.19 244.21 269.52 246.06C283.74 247.91 290.44 250.57 290.44 260.51C290.33 270.68 282 276.46 267.33 276.46Z" />
		<path id="Layer" class="shp1" d="M110.03 104.71C110.03 102.63 108.87 100.67 107.02 99.63L58.02 71.43C57.21 70.96 56.29 70.73 55.36 70.62L54.9 70.62C53.97 70.62 53.05 70.96 52.24 71.43L3.24 99.63C1.39 100.67 0.23 102.63 0.23 104.71L0.35 180.53C0.35 181.57 0.92 182.61 1.85 183.07C2.77 183.65 3.93 183.65 4.74 183.07L33.86 166.43C35.71 165.39 36.87 163.42 36.87 161.34L36.87 125.86C36.87 123.78 38.02 121.82 39.87 120.78L52.24 113.61C53.16 113.03 54.2 112.8 55.25 112.8C56.29 112.8 57.33 113.03 58.13 113.61L70.5 120.78C72.35 121.82 73.51 123.78 73.51 125.86L73.51 161.34C73.51 163.42 74.66 165.39 76.51 166.43L105.64 183.07C106.56 183.65 107.72 183.65 108.64 183.07C109.57 182.61 110.14 181.57 110.14 180.53L110.03 104.71L110.03 104.71Z" />
		<path id="Layer" fill-rule="evenodd" class="shp1" d="M345.57 0.35L374.81 16.64C376.66 17.68 377.82 19.65 377.82 21.84L377.82 162.73C377.82 164.81 376.66 166.78 374.81 167.82L325.81 196.13C323.96 197.17 321.76 197.17 319.91 196.13L270.91 167.82C269.06 166.78 267.9 164.81 267.9 162.73L267.9 106.21C267.9 104.13 269.06 102.17 270.91 101.13L319.91 72.81C321.76 71.77 323.96 71.77 325.81 72.81L338.06 79.86C338.75 80.21 339.45 80.21 340.14 79.86C340.83 79.4 341.18 78.71 341.18 78.01L341.18 2.89C341.18 1.85 341.76 0.92 342.68 0.35C343.49 -0.12 344.65 -0.12 345.57 0.35ZM341.06 144.12L341.06 124.71C341.06 124.24 340.83 123.67 340.37 123.43L323.61 113.73C323.15 113.5 322.57 113.5 322.11 113.73L305.35 123.43C304.89 123.67 304.66 124.13 304.66 124.71L304.66 144.12C304.66 144.59 304.89 145.16 305.35 145.39L322.11 155.1C322.57 155.33 323.15 155.33 323.61 155.1L340.37 145.39C340.83 145.16 341.06 144.7 341.06 144.12Z" />
		<g id="Layer">
			<path id="Layer" class="shp1" d="M508.65 124.24C510.5 123.2 511.54 121.24 511.54 119.16L511.54 105.4C511.54 103.32 510.38 101.36 508.65 100.32L459.99 72.12C458.14 71.08 455.95 71.08 454.1 72.12L405.09 100.44C403.24 101.48 402.09 103.44 402.09 105.52L402.09 162.04C402.09 164.12 403.24 166.08 405.09 167.12L453.75 194.86C455.6 195.9 457.8 195.9 459.53 194.86L489 178.45C489.93 177.99 490.5 176.95 490.5 175.91C490.5 174.87 489.93 173.83 489 173.36L439.77 145.05C438.84 144.47 438.26 143.54 438.26 142.5L438.26 124.82C438.26 123.78 438.84 122.74 439.77 122.28L455.14 113.5C456.06 112.92 457.22 112.92 458.14 113.5L473.51 122.28C474.44 122.86 475.02 123.78 475.02 124.82L475.02 138.69C475.02 139.73 475.59 140.77 476.52 141.23C477.44 141.81 478.6 141.81 479.52 141.23L508.65 124.24L508.65 124.24Z" />
			<path id="Layer" class="shp0" d="M456.29 121.59C456.64 121.35 457.1 121.35 457.45 121.59L466.81 127.02C467.16 127.25 467.39 127.6 467.39 128.06L467.39 138.92C467.39 139.38 467.16 139.73 466.81 139.96L457.45 145.39C457.1 145.63 456.64 145.63 456.29 145.39L446.93 139.96C446.58 139.73 446.35 139.38 446.35 138.92L446.35 128.06C446.35 127.6 446.58 127.25 446.93 127.02L456.29 121.59L456.29 121.59Z" />
		</g>
		<g id="Layer">
			<path id="path-2" class="shp2" d="M191.97 72.35C190.12 71.31 187.93 71.31 186.08 72.35L137.42 100.44C135.57 101.48 134.53 103.44 134.53 105.52L134.53 161.81C134.53 163.89 135.69 165.85 137.42 166.89L186.08 194.98C187.93 196.02 190.12 196.02 191.97 194.98L240.63 166.89C242.48 165.85 243.52 163.89 243.52 161.81L243.52 105.52C243.52 103.44 242.36 101.48 240.63 100.44L191.97 72.35L191.97 72.35Z" />
			<g id="Clip-Path" clip-path="url(#cp1)">
				<g id="Layer">
					<path id="Layer" class="shp3" d="M185.96 72.35L137.19 100.44C135.34 101.48 134.07 103.44 134.07 105.52L134.07 161.81C134.07 163.19 134.65 164.46 135.57 165.5L190.35 71.66C188.97 71.43 187.35 71.54 185.96 72.35L185.96 72.35Z" />
					<path id="Layer" class="shp3" d="M190.7 195.55C191.16 195.44 191.62 195.21 192.09 194.98L240.86 166.89C242.71 165.85 243.86 163.89 243.86 161.81L243.86 105.52C243.86 104.02 243.17 102.52 242.13 101.48L190.7 195.55L190.7 195.55Z" />
					<path id="Layer" class="shp4" d="M240.74 100.44L191.86 72.35C191.39 72.12 190.82 71.89 190.35 71.77L135.57 165.62C136.03 166.2 136.61 166.66 137.19 167.01L186.08 195.09C187.46 195.9 189.08 196.13 190.58 195.67L242.02 101.59C241.67 101.13 241.21 100.78 240.74 100.44L240.74 100.44Z" />
				</g>
			</g>
			<g id="Clip-Path" clip-path="url(#cp2)">
				<g id="Layer">
					<g id="Layer">
						<path id="Layer" class="shp3" d="M243.86 161.81L243.86 105.52C243.86 103.44 242.59 101.48 240.74 100.44L191.86 72.35C191.28 72 190.7 71.77 190.01 71.66L243.52 163.08C243.75 162.73 243.86 162.27 243.86 161.81L243.86 161.81Z" />
						<path id="Layer" class="shp3" d="M137.19 100.44C135.34 101.48 134.07 103.44 134.07 105.52L134.07 161.81C134.07 163.89 135.45 165.85 137.19 166.89L186.08 194.98C187.23 195.67 188.5 195.9 189.89 195.67L137.53 100.32L137.19 100.44L137.19 100.44Z" />
						<path id="Layer" fill-rule="evenodd" class="shp5" d="M184.46 62.06L183.77 62.41L184.69 62.41L184.46 62.06Z" />
						<path id="Layer" fill-rule="evenodd" class="shp6" d="M240.86 166.89C242.25 166.08 243.29 164.7 243.75 163.19L190.12 71.66C188.73 71.43 187.23 71.54 185.96 72.35L137.42 100.32L189.78 195.79C190.47 195.67 191.28 195.44 191.97 195.09L240.86 166.89L240.86 166.89Z" />
						<path id="Layer" fill-rule="evenodd" class="shp7" d="M245.37 165.97L245.02 165.39L245.02 166.2L245.37 165.97Z" />
						<path id="Layer" fill-rule="evenodd" class="shp8" d="M240.86 166.89L192.09 194.98C191.39 195.32 190.7 195.55 189.89 195.67L190.82 197.4L244.9 166.08L244.9 165.39L243.52 163.08C243.29 164.7 242.25 166.08 240.86 166.89L240.86 166.89Z" />
						<path id="Layer" fill-rule="evenodd" class="shp9" d="M240.86 166.89L192.09 194.98C191.39 195.32 190.7 195.55 189.89 195.67L190.82 197.4L244.9 166.08L244.9 165.39L243.52 163.08C243.29 164.7 242.25 166.08 240.86 166.89L240.86 166.89Z" />
					</g>
				</g>
			</g>
		</g>
	</g>
</svg>